HIERARCHY
ROOT Hips
{
	OFFSET 0.000000 83.214638 0.000000
	CHANNELS 6 Xposition Yposition Zposition Xrotation Yrotation Zrotation
	JOINT Pelvis
	{
		OFFSET 0.000000 0.000000 0.000000
		CHANNELS 3 Xrotation Yrotation Zrotation
		JOINT LeftUpLeg
		{
			OFFSET 8.479700 -4.795502 -0.379100
			CHANNELS 3 Xrotation Yrotation Zrotation
			JOINT LeftLeg
			{
				OFFSET 0.024144 -32.555107 0.112900
				CHANNELS 3 Xrotation Yrotation Zrotation
				JOINT LeftFoot
				{
					OFFSET -0.024144 -32.638630 -3.012600
					CHANNELS 3 Xrotation Yrotation Zrotation
					JOINT LeftToeBase
					{
						OFFSET 0.970200 -13.225400 11.864200
						CHANNELS 3 Xrotation Yrotation Zrotation
						End Site
						{
							OFFSET 0.000000 12.319262 0.000000
						}
					}
					JOINT LFootTongue
					{
						OFFSET 1.142400 -1.059800 6.665200
						CHANNELS 3 Xrotation Yrotation Zrotation
						End Site
						{
							OFFSET 0.000000 12.319262 0.000000
						}
					}
				}
				JOINT LeftPantLeg
				{
					OFFSET 0.918482 -16.533964 -2.284700
					CHANNELS 3 Xrotation Yrotation Zrotation
					End Site
					{
						OFFSET 0.350399 24.744368 0.000000
					}
				}
			}
		}
		JOINT RightUpLeg
		{
			OFFSET -8.479700 -4.795502 -0.379100
			CHANNELS 3 Xrotation Yrotation Zrotation
			JOINT RightLeg
			{
				OFFSET -0.023144 -32.555092 0.112900
				CHANNELS 3 Xrotation Yrotation Zrotation
				JOINT RightFoot
				{
					OFFSET 0.023144 -32.638641 -3.012700
					CHANNELS 3 Xrotation Yrotation Zrotation
					JOINT RightToeBase
					{
						OFFSET -0.970200 -13.225400 11.864200
						CHANNELS 3 Xrotation Yrotation Zrotation
						End Site
						{
							OFFSET 0.000000 12.319244 0.000000
						}
					}
					JOINT RFootTongue
					{
						OFFSET -1.142200 -1.059800 6.665200
						CHANNELS 3 Xrotation Yrotation Zrotation
						End Site
						{
							OFFSET 0.000000 12.319243 0.000000
						}
					}
				}
				JOINT RightPantLeg
				{
					OFFSET -0.919482 -16.533978 -2.284800
					CHANNELS 3 Xrotation Yrotation Zrotation
					End Site
					{
						OFFSET -0.350400 24.744419 0.000000
					}
				}
			}
		}
	}
	JOINT Spine
	{
		OFFSET 0.000000 7.722000 1.166200
		CHANNELS 3 Xrotation Yrotation Zrotation
		JOINT Spine1
		{
			OFFSET 0.000000 12.024101 0.248800
			CHANNELS 3 Xrotation Yrotation Zrotation
			JOINT Spine2
			{
				OFFSET 0.000000 11.502998 -0.491200
				CHANNELS 3 Xrotation Yrotation Zrotation
				JOINT Neck
				{
					OFFSET 0.000000 18.430702 -3.123100
					CHANNELS 3 Xrotation Yrotation Zrotation
					JOINT Head
					{
						OFFSET 0.000000 9.051102 1.034000
						CHANNELS 3 Xrotation Yrotation Zrotation
						JOINT HairB
						{
							OFFSET 0.208400 24.786102 24.822300
							CHANNELS 3 Xrotation Yrotation Zrotation
							End Site
							{
								OFFSET 0.000000 32.263779 0.000000
							}
						}
						JOINT HairA
						{
							OFFSET -7.081100 24.428299 23.196600
							CHANNELS 3 Xrotation Yrotation Zrotation
							End Site
							{
								OFFSET 0.000000 32.263779 0.000000
							}
						}
						JOINT Hat
						{
							OFFSET 16.728800 15.048294 -15.439601
							CHANNELS 3 Xrotation Yrotation Zrotation
							End Site
							{
								OFFSET 0.000000 32.263779 0.000000
							}
						}
					}
				}
				JOINT LeftShoulder
				{
					OFFSET 6.197800 13.665199 -4.064700
					CHANNELS 3 Xrotation Yrotation Zrotation
					JOINT LeftArm
					{
						OFFSET 7.778100 -0.187103 -1.709300
						CHANNELS 3 Xrotation Yrotation Zrotation
						JOINT LeftForeArm
						{
							OFFSET 22.049376 0.000000 0.000000
							CHANNELS 3 Xrotation Yrotation Zrotation
							JOINT LeftHand
							{
								OFFSET 23.009392 0.000000 0.000000
								CHANNELS 3 Xrotation Yrotation Zrotation
								JOINT LeftHandThumb1
								{
									OFFSET 3.507191 -2.063065 3.133727
									CHANNELS 3 Xrotation Yrotation Zrotation
									JOINT LeftHandThumb2
									{
										OFFSET 3.101337 -1.790558 1.790558
										CHANNELS 3 Xrotation Yrotation Zrotation
										JOINT LeftHandThumb3
										{
											OFFSET 3.058640 -1.765907 1.765906
											CHANNELS 3 Xrotation Yrotation Zrotation
											End Site
											{
												OFFSET -0.415260 3.926476 -0.049563
											}
										}
									}
								}
								JOINT LeftHandIndex1
								{
									OFFSET 11.334419 -0.901459 3.706815
									CHANNELS 3 Xrotation Yrotation Zrotation
									JOINT LeftHandIndex2
									{
										OFFSET 3.283112 0.000000 0.000000
										CHANNELS 3 Xrotation Yrotation Zrotation
										JOINT LeftHandIndex3
										{
											OFFSET 3.323853 0.000000 0.000000
											CHANNELS 3 Xrotation Yrotation Zrotation
											End Site
											{
												OFFSET -1.135597 3.097809 0.402452
											}
										}
									}
								}
								JOINT LeftHandMiddle1
								{
									OFFSET 11.335861 0.000000 0.000000
									CHANNELS 3 Xrotation Yrotation Zrotation
									JOINT LeftHandMiddle2
									{
										OFFSET 3.410492 0.000000 0.000000
										CHANNELS 3 Xrotation Yrotation Zrotation
										JOINT LeftHandMiddle3
										{
											OFFSET 3.312172 0.000000 0.000000
											CHANNELS 3 Xrotation Yrotation Zrotation
											End Site
											{
												OFFSET -1.150200 3.080154 0.400270
											}
										}
									}
								}
								JOINT LeftHandRing1
								{
									OFFSET 11.514786 -0.013176 -3.003090
									CHANNELS 3 Xrotation Yrotation Zrotation
									JOINT LeftHandRing2
									{
										OFFSET 3.053307 0.000000 0.000000
										CHANNELS 3 Xrotation Yrotation Zrotation
										JOINT LeftHandRing3
										{
											OFFSET 3.295807 0.000000 0.000000
											CHANNELS 3 Xrotation Yrotation Zrotation
											End Site
											{
												OFFSET -1.281006 3.013344 0.375733
											}
										}
									}
								}
								JOINT LeftHandPinky1
								{
									OFFSET 10.518692 -0.960396 -5.730441
									CHANNELS 3 Xrotation Yrotation Zrotation
									JOINT LeftHandPinky2
									{
										OFFSET 2.861649 0.000000 0.000000
										CHANNELS 3 Xrotation Yrotation Zrotation
										JOINT LeftHandPinky3
										{
											OFFSET 2.863380 0.000000 0.000000
											CHANNELS 3 Xrotation Yrotation Zrotation
											End Site
											{
												OFFSET -0.843597 2.711159 0.369971
											}
										}
									}
								}
							}
							JOINT LSleeve
							{
								OFFSET 6.676277 -0.344902 -1.011730
								CHANNELS 3 Xrotation Yrotation Zrotation
								End Site
								{
									OFFSET 0.000000 14.885353 0.000000
								}
							}
						}
					}
				}
				JOINT RightShoulder
				{
					OFFSET -6.197800 13.665199 -4.064700
					CHANNELS 3 Xrotation Yrotation Zrotation
					JOINT RightArm
					{
						OFFSET -7.778100 -0.187103 -1.709300
						CHANNELS 3 Xrotation Yrotation Zrotation
						JOINT RightForeArm
						{
							OFFSET -22.049376 0.000000 0.000000
							CHANNELS 3 Xrotation Yrotation Zrotation
							JOINT RightHand
							{
								OFFSET -23.009392 0.000000 0.000000
								CHANNELS 3 Xrotation Yrotation Zrotation
								JOINT RightHandThumb1
								{
									OFFSET -3.507191 -2.063065 3.133727
									CHANNELS 3 Xrotation Yrotation Zrotation
									JOINT RightHandThumb2
									{
										OFFSET -3.101337 -1.790558 1.790558
										CHANNELS 3 Xrotation Yrotation Zrotation
										JOINT RightHandThumb3
										{
											OFFSET -3.058640 -1.765907 1.765906
											CHANNELS 3 Xrotation Yrotation Zrotation
											End Site
											{
												OFFSET 0.415260 3.926476 -0.049563
											}
										}
									}
								}
								JOINT RightHandIndex1
								{
									OFFSET -11.334419 -0.901459 3.706815
									CHANNELS 3 Xrotation Yrotation Zrotation
									JOINT RightHandIndex2
									{
										OFFSET -3.283112 0.000000 0.000000
										CHANNELS 3 Xrotation Yrotation Zrotation
										JOINT RightHandIndex3
										{
											OFFSET -3.323853 0.000000 0.000000
											CHANNELS 3 Xrotation Yrotation Zrotation
											End Site
											{
												OFFSET 1.135597 3.097809 0.402452
											}
										}
									}
								}
								JOINT RightHandMiddle1
								{
									OFFSET -11.335861 0.000000 0.000000
									CHANNELS 3 Xrotation Yrotation Zrotation
									JOINT RightHandMiddle2
									{
										OFFSET -3.410492 0.000000 0.000000
										CHANNELS 3 Xrotation Yrotation Zrotation
										JOINT RightHandMiddle3
										{
											OFFSET -3.312172 0.000000 0.000000
											CHANNELS 3 Xrotation Yrotation Zrotation
											End Site
											{
												OFFSET 1.150200 3.080154 0.400270
											}
										}
									}
								}
								JOINT RightHandRing1
								{
									OFFSET -11.514786 -0.013176 -3.003090
									CHANNELS 3 Xrotation Yrotation Zrotation
									JOINT RightHandRing2
									{
										OFFSET -3.053307 0.000000 0.000000
										CHANNELS 3 Xrotation Yrotation Zrotation
										JOINT RightHandRing3
										{
											OFFSET -3.295807 0.000000 0.000000
											CHANNELS 3 Xrotation Yrotation Zrotation
											End Site
											{
												OFFSET 1.281006 3.013344 0.375733
											}
										}
									}
								}
								JOINT RightHandPinky1
								{
									OFFSET -10.518692 -0.960396 -5.730441
									CHANNELS 3 Xrotation Yrotation Zrotation
									JOINT RightHandPinky2
									{
										OFFSET -2.861649 0.000000 0.000000
										CHANNELS 3 Xrotation Yrotation Zrotation
										JOINT RightHandPinky3
										{
											OFFSET -2.863380 0.000000 0.000000
											CHANNELS 3 Xrotation Yrotation Zrotation
											End Site
											{
												OFFSET 0.843597 2.711159 0.369971
											}
										}
									}
								}
							}
							JOINT RSleeve
							{
								OFFSET -6.676277 -0.344902 -1.011730
								CHANNELS 3 Xrotation Yrotation Zrotation
								End Site
								{
									OFFSET 0.000000 14.885353 0.000000
								}
							}
						}
					}
				}
				JOINT Backpack
				{
					OFFSET 0.000000 -2.471497 36.677502
					CHANNELS 3 Xrotation Yrotation Zrotation
					End Site
					{
						OFFSET 0.000000 20.427315 0.000000
					}
				}
				JOINT Hood
				{
					OFFSET 0.000000 18.754097 -10.431000
					CHANNELS 3 Xrotation Yrotation Zrotation
					JOINT Hood1
					{
						OFFSET 0.000000 -5.011002 -7.685901
						CHANNELS 3 Xrotation Yrotation Zrotation
						End Site
						{
							OFFSET 0.000000 9.175140 0.000000
						}
					}
				}
				JOINT LHoodieString
				{
					OFFSET 5.250500 16.397697 3.089900
					CHANNELS 3 Xrotation Yrotation Zrotation
					JOINT LHoodieString1
					{
						OFFSET 0.257700 -6.364304 3.694600
						CHANNELS 3 Xrotation Yrotation Zrotation
						JOINT LHoodieString2
						{
							OFFSET 0.000000 -9.643799 2.679100
							CHANNELS 3 Xrotation Yrotation Zrotation
							End Site
							{
								OFFSET 0.000000 10.009018 0.000000
							}
						}
					}
				}
				JOINT RHoodieString
				{
					OFFSET -5.250500 16.397697 3.089900
					CHANNELS 3 Xrotation Yrotation Zrotation
					JOINT RHoodieString1
					{
						OFFSET -0.257700 -6.364304 3.694600
						CHANNELS 3 Xrotation Yrotation Zrotation
						JOINT RHoodieString2
						{
							OFFSET 0.000000 -9.643799 2.679100
							CHANNELS 3 Xrotation Yrotation Zrotation
							End Site
							{
								OFFSET 0.000000 10.009018 0.000000
							}
						}
					}
				}
			}
			JOINT LBackpack_Strap
			{
				OFFSET 15.223200 -7.719803 -6.610900
				CHANNELS 3 Xrotation Yrotation Zrotation
				End Site
				{
					OFFSET 0.000000 16.040596 0.000000
				}
			}
			JOINT RBackpack_Strap
			{
				OFFSET -15.223000 -7.719803 -6.610900
				CHANNELS 3 Xrotation Yrotation Zrotation
				End Site
				{
					OFFSET 0.000000 16.040596 0.000000
				}
			}
		}
	}
	JOINT BoyFacialAnim_Joint
	{
		OFFSET 1.000000 -82.208099 -1.550900
		CHANNELS 3 Xrotation Yrotation Zrotation
		End Site
		{
			OFFSET 0.000000 30.012791 0.000000
		}
	}
}
MOTION
Frames: 4
Frame Time: 0.016667
4.976220 73.689713 -1.822936 163.370202 -84.894948 173.153861 -0.000000 -0.000000 -0.000001 -15.270969 18.479825 14.137146 45.287692 10.022877 -6.919830 -18.211706 14.107675 -17.553668 -0.000000 0.000000 -0.000000 -0.000000 0.000000 -0.000000 -0.000003 0.000003 -0.000001 -44.153536 11.686721 -15.273782 47.854436 -3.654849 -8.338483 -9.483265 18.993877 13.376826 0.000000 -0.000000 -0.000000 0.000000 -0.000000 -0.000000 0.000000 -0.000000 -0.000001 26.956959 -10.542296 8.842500 22.828261 -3.476727 1.160363 22.831241 -3.513604 1.117197 5.617730 -1.103830 -3.287020 -24.500409 16.764409 -15.915162 -0.000005 0.000001 0.000000 -0.000005 0.000001 0.000000 -0.000005 0.000001 0.000000 -0.574382 -9.850077 11.644915 7.953502 23.817331 -68.381511 -0.000857 -83.763008 -0.000850 -0.593560 -15.951299 -35.333316 -6.141213 -11.690808 -6.761697 9.914137 42.595512 3.409864 -0.000000 -0.000000 -0.000001 0.255316 3.378225 -45.814348 5.654098 5.847771 -88.067469 -0.000003 -0.000000 -0.000000 -0.461469 3.841592 -39.722686 6.450752 5.820353 -95.892857 0.000001 -0.000004 -0.000006 0.469724 4.966824 -39.799444 8.181038 5.368627 -113.502998 -0.000002 0.000000 -0.000004 -3.762420 9.063687 -45.253818 5.342550 5.829018 -85.005331 -0.000002 0.000003 -0.000003 0.000001 -0.000001 0.000000 6.747087 21.058551 15.296847 -49.806815 49.425882 42.155900 0.000041 110.780969 -0.000033 -30.368640 3.752452 19.633063 -7.341093 13.749659 7.412331 9.855787 -44.489086 -3.903252 -0.000001 0.000001 -0.000002 -0.124372 -2.384797 45.108868 4.500601 -4.654554 88.071171 -0.000001 0.000002 0.000000 -0.761619 -2.932911 39.031061 5.133879 -4.632759 95.881642 -0.000003 0.000003 0.000002 0.154763 -4.068817 39.122668 6.509721 -4.273600 113.462877 0.000003 0.000001 0.000000 -4.198874 -8.025509 44.637772 4.252918 -4.639643 85.014805 0.000004 -0.000001 -0.000002 0.000000 -0.000002 0.000001 -0.000000 0.000001 -0.000001 -0.000000 0.000001 -0.000001 -0.000000 0.000001 -0.000001 -0.000000 0.000001 -0.000001 -0.000000 0.000001 -0.000001 0.000001 0.000001 -0.000001 -0.000000 0.000001 -0.000001 -0.000000 0.000001 -0.000001 0.000001 0.000001 -0.000001 -0.000001 0.000000 0.000000 -0.000001 0.000000 0.000000 -0.000000 -0.000000 -0.000001 
4.939091 73.619934 -2.036510 167.262372 -87.405979 177.129277 -0.000000 0.000000 0.000000 -15.479014 18.158527 14.450945 45.547738 10.009720 -6.378152 -18.006587 11.969705 -17.776401 -0.000000 -0.000001 0.000000 -0.000000 -0.000001 -0.000000 -0.000000 -0.000002 -0.000002 -42.892345 11.370692 -16.233637 48.895709 -3.714904 -8.320811 -10.335872 17.175972 13.612669 0.000000 -0.000000 -0.000000 0.000000 -0.000000 -0.000000 -0.000000 0.000000 0.000001 26.556624 -10.502603 8.741575 22.569691 -3.466849 1.087109 22.571347 -3.500718 1.047246 5.617282 -0.871037 -3.422218 -22.991142 17.514668 -15.694489 -0.000001 0.000000 -0.000000 -0.000001 0.000000 -0.000000 -0.000001 0.000000 -0.000000 -0.552073 -9.621078 10.944560 4.435600 26.897731 -66.445446 -0.005456 -87.948869 -0.005582 -0.585602 -15.037175 -35.679539 -6.141210 -11.690809 -6.761698 9.914139 42.595508 3.409864 -0.000002 0.000000 0.000001 0.255320 3.378227 -45.814344 5.654098 5.847768 -88.067469 0.000001 0.000000 -0.000002 -0.461471 3.841592 -39.722686 6.450751 5.820353 -95.892864 -0.000001 0.000000 0.000004 0.469726 4.966826 -39.799441 8.181038 5.368627 -113.502998 -0.000001 0.000001 -0.000000 -3.762420 9.063687 -45.253821 5.342545 5.829020 -85.005331 -0.000002 0.000002 -0.000000 0.000002 -0.000001 0.000000 6.677411 21.397936 15.512674 -47.870760 45.703968 40.482934 0.000079 111.430397 -0.000083 -31.320109 4.487731 19.907208 -7.341093 13.749665 7.412330 9.855796 -44.489089 -3.903263 0.000000 0.000000 -0.000003 -0.124370 -2.384796 45.108864 4.500601 -4.654555 88.071171 0.000001 -0.000001 0.000003 -0.761621 -2.932907 39.031061 5.133879 -4.632760 95.881635 -0.000003 -0.000001 0.000003 0.154766 -4.068815 39.122668 6.509724 -4.273604 113.462884 0.000001 -0.000000 0.000002 -4.198872 -8.025510 44.637766 4.252919 -4.639645 85.014798 -0.000002 0.000000 -0.000003 -0.000000 -0.000003 0.000001 -0.000002 -0.000000 0.000001 -0.000002 -0.000000 0.000001 -0.000002 -0.000000 0.000001 -0.000002 -0.000000 0.000001 -0.000002 -0.000000 -0.000000 -0.000001 0.000000 -0.000000 -0.000002 -0.000000 0.000001 -0.000002 -0.000000 -0.000000 -0.000001 0.000000 -0.000000 -0.000000 0.000000 -0.000000 -0.000000 0.000000 -0.000000 -0.000000 0.000000 0.000000 
4.903466 73.575119 -2.244238 96.504023 -90.334497 106.443232 0.000000 -0.000000 -0.000001 -15.755204 17.780931 14.779783 45.740411 9.997551 -5.844385 -17.766200 9.666628 -17.938952 -0.000000 0.000001 -0.000000 -0.000000 0.000001 -0.000000 0.000001 0.000002 0.000001 -41.482246 10.934163 -17.268506 49.806235 -3.792701 -8.247352 -11.139236 15.266543 13.843223 0.000000 -0.000001 -0.000000 0.000000 -0.000001 -0.000000 0.000000 -0.000000 -0.000004 26.054873 -10.499831 8.648659 22.258178 -3.473025 1.011016 22.258238 -3.504559 0.974831 5.582343 -0.609720 -3.490636 -21.431940 18.334330 -15.324463 -0.000002 0.000000 0.000001 -0.000002 0.000000 0.000001 -0.000002 0.000000 0.000001 -0.520521 -9.531911 10.234639 1.463523 28.835474 -64.955051 0.012272 -92.579478 0.012222 -0.628407 -14.115750 -35.772388 -6.141210 -11.690805 -6.761696 9.914141 42.595515 3.409863 0.000001 -0.000001 0.000000 0.255316 3.378227 -45.814344 5.654097 5.847768 -88.067462 -0.000000 -0.000001 -0.000000 -0.461469 3.841590 -39.722686 6.450751 5.820357 -95.892857 -0.000000 -0.000002 0.000001 0.469726 4.966825 -39.799437 8.181038 5.368626 -113.502998 0.000000 0.000003 -0.000004 -3.762419 9.063689 -45.253818 5.342546 5.829017 -85.005324 -0.000001 0.000000 0.000002 -0.000000 0.000002 0.000003 6.665669 21.639404 15.541465 -46.863779 42.548346 39.774459 0.000000 111.812690 0.000004 -31.896276 5.342539 20.119381 -7.341090 13.749663 7.412332 9.855790 -44.489089 -3.903259 0.000000 0.000000 0.000003 -0.124371 -2.384796 45.108861 4.500598 -4.654554 88.071171 0.000002 0.000000 -0.000002 -0.761615 -2.932913 39.031058 5.133878 -4.632760 95.881635 0.000001 -0.000000 0.000002 0.154768 -4.068817 39.122668 6.509723 -4.273611 113.462884 0.000003 -0.000001 0.000000 -4.198869 -8.025516 44.637769 4.252918 -4.639646 85.014798 0.000003 -0.000001 -0.000000 -0.000001 -0.000001 -0.000000 -0.000001 -0.000000 -0.000002 -0.000001 -0.000000 -0.000002 -0.000001 -0.000000 -0.000002 -0.000001 -0.000000 -0.000002 -0.000001 -0.000000 -0.000002 -0.000000 0.000001 -0.000001 -0.000001 -0.000000 -0.000002 -0.000001 -0.000000 -0.000002 -0.000000 0.000001 -0.000001 -0.000001 0.000000 -0.000001 -0.000001 0.000000 -0.000001 0.000000 -0.000000 -0.000001 
4.861768 73.548126 -2.441681 155.575768 -92.973662 165.611037 0.000000 -0.000000 -0.000001 -16.056223 17.404348 15.119295 45.863843 9.986263 -5.400193 -17.510004 7.221215 -18.017004 -0.000000 -0.000001 0.000000 -0.000000 -0.000001 0.000000 0.000001 0.000000 -0.000002 -39.994647 10.407538 -18.378798 50.613218 -3.883009 -8.086390 -11.897591 13.370320 14.044404 0.000000 -0.000001 0.000000 0.000000 -0.000001 0.000000 -0.000000 0.000000 -0.000002 25.461449 -10.551250 8.509356 21.901881 -3.506257 0.903644 21.899859 -3.536339 0.871496 5.510151 -0.303585 -3.526250 -19.806039 19.269323 -14.830550 -0.000001 0.000000 -0.000000 -0.000001 0.000000 -0.000000 -0.000001 0.000000 -0.000000 -0.487515 -9.491401 9.564245 -0.653363 29.569781 -64.021084 -0.000744 -97.278669 -0.000714 -0.727239 -13.207232 -35.636772 -6.141216 -11.690808 -6.761694 9.914133 42.595515 3.409864 -0.000001 -0.000001 -0.000000 0.255319 3.378227 -45.814344 5.654094 5.847766 -88.067469 -0.000003 -0.000001 -0.000004 -0.461466 3.841592 -39.722686 6.450754 5.820355 -95.892864 -0.000000 0.000000 0.000002 0.469728 4.966826 -39.799441 8.181038 5.368626 -113.502991 -0.000001 0.000001 -0.000000 -3.762419 9.063688 -45.253814 5.342547 5.829015 -85.005331 0.000000 0.000003 0.000004 -0.000000 -0.000003 0.000004 6.712783 21.856320 15.378786 -46.521542 39.994128 39.770064 -0.000000 111.959081 -0.000004 -32.012444 6.164904 20.344917 -7.341092 13.749665 7.412331 9.855791 -44.489089 -3.903261 0.000000 -0.000001 -0.000001 -0.124368 -2.384794 45.108864 4.500598 -4.654553 88.071171 -0.000002 0.000000 0.000002 -0.761619 -2.932906 39.031061 5.133876 -4.632760 95.881635 -0.000003 -0.000000 0.000002 0.154765 -4.068812 39.122668 6.509723 -4.273602 113.462877 0.000002 0.000002 0.000001 -4.198867 -8.025513 44.637766 4.252919 -4.639647 85.014805 -0.000002 -0.000002 -0.000000 -0.000000 -0.000002 -0.000003 0.000000 0.000000 0.000001 0.000000 0.000000 0.000001 0.000000 0.000000 0.000001 0.000000 0.000000 0.000001 0.000000 0.000000 0.000001 0.000001 0.000000 0.000001 0.000000 0.000000 0.000001 0.000000 0.000000 0.000001 0.000001 0.000000 0.000001 0.000001 -0.000000 -0.000001 0.000001 -0.000000 -0.000001 0.000000 -0.000000 -0.000001 
